<?xml version="1.0" encoding="UTF-8" standalone="no"?>
<svg width="52px" height="76px" viewBox="0 0 52 76" version="1.1" xmlns="http://www.w3.org/2000/svg" xmlns:xlink="http://www.w3.org/1999/xlink">
    <!-- Generator: Sketch 41.2 (35397) - http://www.bohemiancoding.com/sketch -->
    <title>logo</title>
    <desc>Created with Sketch.</desc>
    <defs></defs>
    <g id="Page-1" stroke="none" stroke-width="1" fill="none" fill-rule="evenodd">
        <g id="logo" fill="#FFFFFF">
            <path d="M5.54763163,58.3652368 L5.54763163,54.1025481 L3.72076507,54.1025481 C2.22179762,54.1025481 1.4723139,53.96202 1.00388658,53.4467499 C0.488616521,52.9314798 0.301245591,52.0883106 0.301245591,50.448815 L0.301245591,42.9071351 C0.301245591,39.8623575 -1.29140731,38.8786601 -2.79037476,38.2228618 C-1.29140731,37.5670636 0.301245591,36.5833662 0.301245591,33.5385886 L0.301245591,25.9969086 C0.301245591,24.357413 0.488616521,23.5142438 1.00388658,22.9989737 C1.4723139,22.4837037 2.22179762,22.3431755 3.72076507,22.3431755 L5.54763163,22.3431755 L5.54763163,18.0804868 L2.22179762,18.0804868 C-0.167181734,18.0804868 -1.71299191,18.5957569 -2.79037476,19.6731397 C-4.0082858,20.8910508 -4.47671313,22.3431755 -4.47671313,24.5916267 L-4.47671313,32.414363 C-4.47671313,33.7259595 -4.75776952,34.6628141 -5.31988231,35.2249269 C-5.83515237,35.740197 -6.53779336,36.1149389 -7.56833347,36.1149389 L-9.30151458,36.1149389 L-9.30151458,40.3307848 L-7.56833347,40.3307848 C-6.53779336,40.3307848 -5.83515237,40.7055266 -5.31988231,41.2207967 C-4.75776952,41.7829095 -4.47671313,42.7197641 -4.47671313,44.0313607 L-4.47671313,51.854097 C-4.47671313,54.1025481 -4.0082858,55.5546729 -2.79037476,56.7725839 C-1.71299191,57.8499667 -0.167181734,58.3652368 2.22179762,58.3652368 L5.54763163,58.3652368 Z M15.2674986,41.5486958 L15.2674986,35.8338825 L9.599528,35.8338825 L9.599528,41.5486958 L15.2674986,41.5486958 Z M15.2674986,54.8988746 L15.2674986,49.1840612 L9.599528,49.1840612 L9.599528,54.8988746 L15.2674986,54.8988746 Z M44.0523578,37.9886482 C44.0523578,33.1638467 44.2865714,28.2922025 40.679681,24.6853121 C38.5717581,22.5773892 35.5269805,21.546849 32.0606182,21.546849 L20.3499351,21.546849 L20.3499351,54.8988746 L32.0606182,54.8988746 C35.5269805,54.8988746 38.5717581,53.8683345 40.679681,51.7604115 C44.2865714,48.1535211 44.0523578,42.8134496 44.0523578,37.9886482 Z M38.9933427,37.9886482 C38.9933427,42.5792359 38.9464999,46.1861264 37.2133188,48.1066784 C35.8080368,49.6524886 33.9343275,50.3551295 31.5453482,50.3551295 L25.4089502,50.3551295 L25.4089502,26.0905941 L31.5453482,26.0905941 C33.9343275,26.0905941 35.8080368,26.7932351 37.2133188,28.3390453 C38.9464999,30.2595973 38.9933427,33.3980604 38.9933427,37.9886482 Z M61.2202192,40.3307848 L61.2202192,36.1149389 L59.5338809,36.1149389 C58.5033408,36.1149389 57.753857,35.740197 57.238587,35.2249269 C56.6764742,34.6628141 56.3954178,33.7259595 56.3954178,32.414363 L56.3954178,24.5916267 C56.3954178,22.3431755 55.9269905,20.8910508 54.7090794,19.6731397 C53.6316966,18.5957569 52.0858864,18.0804868 49.696907,18.0804868 L46.371073,18.0804868 L46.371073,22.3431755 L48.1979396,22.3431755 C49.696907,22.3431755 50.4463908,22.4837037 50.9148181,22.9989737 C51.4300881,23.5142438 51.6174591,24.357413 51.6174591,25.9969086 L51.6174591,33.5385886 C51.6174591,36.5833662 53.2569547,37.5670636 54.7559222,38.2228618 C53.2569547,38.8786601 51.6174591,39.8623575 51.6174591,42.9071351 L51.6174591,50.448815 C51.6174591,52.0883106 51.4300881,52.9314798 50.9148181,53.4467499 C50.4463908,53.96202 49.696907,54.1025481 48.1979396,54.1025481 L46.371073,54.1025481 L46.371073,58.3652368 L49.696907,58.3652368 C52.0858864,58.3652368 53.6316966,57.8499667 54.7090794,56.7725839 C55.9269905,55.5546729 56.3954178,54.1025481 56.3954178,51.854097 L56.3954178,44.0313607 C56.3954178,42.7197641 56.6764742,41.7829095 57.238587,41.2207967 C57.753857,40.7055266 58.5033408,40.3307848 59.5338809,40.3307848 L61.2202192,40.3307848 Z" id="{:D}-Copy" transform="translate(25.959352, 38.222862) rotate(100.000000) translate(-25.959352, -38.222862) "></path>
        </g>
    </g>
</svg>